<svg xmlns="http://www.w3.org/2000/svg" viewBox="0 0 64 64" fill="none">
  <path d="M 25 41 C 18 41 13 35 13 28 C 13 20 19 13 27 11 C 36 9 47 12 51 20 C 54 26 53 32 49 36 C 51 40 48 45 42 45 C 37 45 35 43 35 41" stroke="#10B981" stroke-width="4" stroke-linecap="round" stroke-linejoin="round"/>
  <path d="M 23 27 C 28 27 34 25 44 22" stroke="#10B981" stroke-width="3" stroke-linecap="round"/>
  <path d="M 33 12 C 32 19 28 26 24 33" stroke="#10B981" stroke-width="3" stroke-linecap="round"/>
  <path d="M 42 16 C 41 22 43 30 48 33" stroke="#10B981" stroke-width="3" stroke-linecap="round"/>
  <path d="M 25 41 L 25 47 L 35 47 L 35 41" stroke="#10B981" stroke-width="4" stroke-linecap="round" stroke-linejoin="round"/>
  <rect x="23" y="47" width="14" height="11" rx="2" fill="#10B981"/>
  <rect x="25.5" y="50" width="3" height="4" rx="0.5" fill="#0B0F19"/>
  <rect x="31.5" y="50" width="3" height="4" rx="0.5" fill="#0B0F19"/>
</svg>
