<svg xmlns="http://www.w3.org/2000/svg" viewBox="0 0 64 64" fill="none">
  <path d="M32 10C24 10 17 15.5 17 23.5C17 26.8 18.3 29.8 20.5 32C18.5 33.8 17 36.5 17 39.5C17 44.5 21 48.5 26 48.5H32" stroke="#10B981" stroke-width="4" stroke-linecap="round" stroke-linejoin="round"/>
  <path d="M32 10C40 10 47 15.5 47 23.5C47 26.8 45.7 29.8 43.5 32C45.5 33.8 47 36.5 47 39.5C47 44.5 43 48.5 38 48.5H32" stroke="#10B981" stroke-width="4" stroke-linecap="round" stroke-linejoin="round"/>
  <path d="M32 10V48.5" stroke="#10B981" stroke-width="3.5" stroke-linecap="round"/>
  <path d="M23 20C27 22 32 22 32 22" stroke="#10B981" stroke-width="3" stroke-linecap="round"/>
  <path d="M41 20C37 22 32 22 32 22" stroke="#10B981" stroke-width="3" stroke-linecap="round"/>
  <rect x="24" y="48.5" width="16" height="8" rx="2" fill="#10B981"/>
  <rect x="27.5" y="56.5" width="3" height="4.5" rx="0.5" fill="#10B981"/>
  <rect x="33.5" y="56.5" width="3" height="4.5" rx="0.5" fill="#10B981"/>
</svg>
